<?xml version="1.0" encoding="UTF-8"?>
<svg id="g-acsri-Artboard_5-group2024-img" xmlns="http://www.w3.org/2000/svg" baseProfile="tiny" version="1.2" viewBox="0 0 300 700">
  <!-- Generator: Adobe Illustrator 29.6.1, SVG Export Plug-In . SVG Version: 2.1.1 Build 9)  -->
  <g id="Caterpillar_Inc.">
    <path id="p_717.3456713788878" d="M35.831,330.78c-17.589.003-31.85-14.253-31.853-31.843-.003-17.589,14.253-31.85,31.843-31.853h.011c17.589-.003,31.85,14.253,31.853,31.843.003,17.589-14.253,31.85-31.843,31.853h-.011Z" fill="#16425b"/>
  </g>
  <g id="Caterpillar_Inc.1" data-name="Caterpillar_Inc.">
    <path id="p_717.34567137888781" data-name="p_717.3456713788878" d="M84.104,274.135c-17.589.003-31.85-14.253-31.853-31.843-.003-17.589,14.253-31.85,31.843-31.853h.011c17.589-.003,31.85,14.253,31.853,31.843.003,17.589-14.253,31.85-31.843,31.853h-.011Z" fill="#ffd972"/>
  </g>
  <g>
    <path d="M57.415,189.737c-9.298,17.073-20.361,42.756-24.047,74.737-.135,1.175-.259,2.339-.37,3.492" fill="none" stroke="#000" stroke-miterlimit="10"/>
    <polygon points="32.447 275.005 29.264 264.739 33.108 267.445 37.363 265.448 32.447 275.005"/>
  </g>
  <g>
    <path d="M73.844,179.681c5.783,8.332,11.345,19.722,8.696,31.102" fill="none" stroke="#000" stroke-miterlimit="10"/>
    <polygon points="80.013 217.382 79.564 206.643 82.587 210.243 87.212 209.401 80.013 217.382"/>
  </g>
  <g id="microsoft">
    <path id="p_949.2711291565297" d="M94.819,527.168c-15.673.003-28.381-12.862-28.384-28.736-.003-15.874,12.699-28.745,28.372-28.748h.012c15.673-.003,28.381,12.862,28.384,28.736.003,15.874-12.699,28.745-28.372,28.748h-.012Z" fill="#abc4ff"/>
  </g>
  <g id="Alphabet">
    <path id="p_613.5263539744518" d="M51.696,470.403c-13.467,0-24.384-11.057-24.384-24.697s10.917-24.697,24.384-24.697,24.384,11.057,24.384,24.697-10.917,24.697-24.384,24.697Z" fill="#ffbe0b"/>
  </g>
  <g id="Amazon">
    <path id="p_436.09559722526285" d="M52.606,376.888c-11.676,0-21.141-9.587-21.141-21.412s9.465-21.412,21.141-21.412,21.141,9.587,21.141,21.412-9.465,21.412-21.141,21.412Z" fill="#e0b1cb"/>
  </g>
  <g id="microsoft_uw">
    <path id="p_716.642426038251" d="M235.624,439.644c-9.175,0-16.613-7.534-16.613-16.827s7.438-16.827,16.613-16.827,16.613,7.534,16.613,16.827-7.438,16.827-16.613,16.827Z" fill="#abc4ff"/>
  </g>
  <g id="Amazon_uw">
    <path id="p_743.0202952505553" d="M194.666,468.899c-6.935,0-12.557-5.694-12.557-12.718s5.622-12.718,12.557-12.718,12.557,5.694,12.557,12.718-5.622,12.718-12.557,12.718Z" fill="#e0b1cb"/>
  </g>
  <g id="Alphabet_uw">
    <path id="p_836.7981677895087" d="M274.647,457.95c-6.849,0-12.402-5.624-12.402-12.561s5.553-12.561,12.402-12.561,12.402,5.624,12.402,12.561-5.553,12.561-12.402,12.561Z" fill="#ffbe0b"/>
  </g>
  <g id="Booking">
    <path id="p_1012.1771434341059" d="M288.113,349.255c-4.518,0-8.181-3.71-8.181-8.286s3.663-8.286,8.181-8.286,8.181,3.71,8.181,8.286-3.663,8.286-8.181,8.286Z" fill="#bcbd22"/>
  </g>
  <g id="Raytheon">
    <path id="p_1019.8498859454652" d="M138.504,440.13c-7.586,0-13.736-6.229-13.736-13.913s6.15-13.913,13.736-13.913,13.736,6.229,13.736,13.913-6.15,13.913-13.736,13.913Z" fill="#e9c46a"/>
  </g>
  <g id="Raytheon1" data-name="Raytheon">
    <path id="p_1019.84988594546521" data-name="p_1019.8498859454652" d="M178.59,399.04c-7.586,0-13.736-6.229-13.736-13.913s6.15-13.913,13.736-13.913,13.736,6.229,13.736,13.913-6.15,13.913-13.736,13.913Z" fill="#90be6d"/>
  </g>
  <g>
    <path d="M138.328,293.329c-9.868,2.142-24.171,6.743-39.772,17.411-12.188,8.334-21.559,17.903-28.349,26.082" fill="none" stroke="#000" stroke-miterlimit="10"/>
    <polygon points="65.822 342.355 68.894 332.055 70.581 336.444 75.227 337.153 65.822 342.355"/>
  </g>
  <g>
    <path d="M139.346,293.447c-10.903,6.012-26.706,18.92-43.944,48.853-15.224,26.436-26.47,57.301-34.114,81.954" fill="none" stroke="#000" stroke-miterlimit="10"/>
    <polygon points="59.236 431.007 58.367 420.294 61.529 423.773 66.117 422.751 59.236 431.007"/>
  </g>
  <g>
    <path d="M150.663,312.481c3.115,2.937,7.631,9.242,12.557,23.864,3.921,11.641,6.919,25.04,9.072,36.389" fill="none" stroke="#000" stroke-miterlimit="10"/>
    <polygon points="173.555 379.676 167.743 370.635 172.171 372.215 175.737 369.153 173.555 379.676"/>
  </g>
  <g>
    <path d="M230.4,286.361c-6.527,4.049-15.987,12.742-26.307,32.902-8.704,17.004-15.236,36.729-19.792,52.932" fill="none" stroke="#000" stroke-miterlimit="10"/>
    <polygon points="182.443 379.005 181.228 368.326 184.501 371.701 189.053 370.531 182.443 379.005"/>
  </g>
  <g>
    <path d="M255.14,312.481c2.414,5.38,5.913,16.931,9.729,43.718,3.32,23.302,5.786,50.45,7.476,72.343" fill="none" stroke="#000" stroke-miterlimit="10"/>
    <polygon points="272.877 435.582 267.99 426.01 272.239 428.02 276.091 425.326 272.877 435.582"/>
  </g>
  <g>
    <path d="M277.364,303.507c1.975,1.41,4.837,4.439,7.959,11.461,1.969,4.428,3.57,9.385,4.829,13.964" fill="none" stroke="#000" stroke-miterlimit="10"/>
    <polygon points="291.874 335.778 285.41 327.192 289.942 328.44 293.272 325.122 291.874 335.778"/>
  </g>
  <g>
    <path d="M138.429,294.651v116.094" fill="none" stroke="#000" stroke-miterlimit="10"/>
    <polygon points="138.429 417.805 134.364 407.856 138.429 410.217 142.493 407.856 138.429 417.805"/>
  </g>
  <g>
    <path d="M235.291,299.358v106.632" fill="none" stroke="#000" stroke-miterlimit="10"/>
    <polygon points="235.291 413.05 231.226 403.101 235.291 405.462 239.356 403.101 235.291 413.05"/>
  </g>
  <g>
    <g>
      <path d="M21.584,59.291v13.435" fill="#fff"/>
      <g>
        <path d="M21.584,62.822v9.905" fill="none" stroke="#000" stroke-miterlimit="10"/>
        <polygon points="21.584 59.291 19.551 64.266 21.584 63.085 23.616 64.266 21.584 59.291"/>
      </g>
    </g>
    <g>
      <path d="M21.06,122.506v-13.435" fill="#fff"/>
      <g>
        <path d="M21.06,118.975v-9.905" fill="none" stroke="#000" stroke-miterlimit="10"/>
        <polygon points="21.06 122.506 23.093 117.531 21.06 118.711 19.028 117.531 21.06 122.506"/>
      </g>
    </g>
    <path d="M266.89,189.736H42.37c-1.291.008-3.241-.11-5.545-.776-.084-.024-.342-.1-.648-.2,0,0-3.015-.98-5.358-2.87-4.309-3.477-4.721-8.019-4.784-9.285v-17.07c0-7.252,7.313-13.132,16.334-13.132h224.52c9.021,0,16.334,5.879,16.334,13.132v17.07c0,7.252-7.313,13.132-16.334,13.132Z" fill="#b9d9eb"/>
  </g>
  <g>
    <path d="M169.767,258.831c-.091-14.987-.188-37.172-.172-63.56,0-.534,0-1.065,0-1.593" fill="none" stroke="#000" stroke-miterlimit="10"/>
    <polygon points="169.604 186.617 173.659 196.571 169.596 194.206 165.529 196.562 169.604 186.617"/>
  </g>
  <g>
    <path d="M266.871,263.691c-5.79-17.128-14.522-42.423-25.474-72.305-.391-1.068-.779-2.125-1.164-3.17" fill="none" stroke="#000" stroke-miterlimit="10"/>
    <polygon points="237.788 181.593 245.043 189.523 240.412 188.714 237.414 192.334 237.788 181.593"/>
  </g>
  <rect x="138.609" y="215.179" width="56.302" height="15" rx="6.25" ry="6.25" fill="#3d348b"/>
  <rect x="230.4" y="210.903" width="56.302" height="15" rx="6.25" ry="6.25" fill="#3c6e71"/>
  <g id="Columbia_University_Trust_U_x2F_W_E_Reussner__x28_2023_x29_">
    <path id="p_687.1397858804936" d="M169.593,319.643c-18.148.002-32.861-14.897-32.863-33.278-.002-18.381,14.708-33.283,32.856-33.285h.007c18.148-.002,32.861,14.897,32.863,33.278.002,18.381-14.708,33.283-32.856,33.285h-.007Z" fill="#3d348b"/>
  </g>
  <g id="Columbia_University_Tr_Uw_For_P60266007__x28_2023_x29_">
    <path id="p_902.0955334450956" d="M262.033,314.763c-18.148.002-32.861-14.897-32.863-33.278-.002-18.381,14.708-33.283,32.856-33.285h.007c18.148-.002,32.861,14.897,32.863,33.278.002,18.381-14.708,33.283-32.856,33.285h-.007Z" fill="#3c6e71"/>
  </g>
  <g>
    <path d="M137.396,294.651c-5.795,8.047-14.194,25.324-23.355,65.39-8.258,36.115-14.314,78.404-18.379,111.726" fill="none" stroke="#000" stroke-miterlimit="10"/>
    <polygon points="94.819 478.777 92.028 468.398 95.767 471.248 100.094 469.413 94.819 478.777"/>
  </g>
  <g>
    <path d="M235.515,300.735c-5.685,6.335-13.923,19.939-22.91,51.485-7.951,27.909-13.821,60.501-17.806,86.505" fill="none" stroke="#000" stroke-miterlimit="10"/>
    <polygon points="193.749 445.706 191.274 435.247 194.924 438.209 199.306 436.506 193.749 445.706"/>
  </g>
<style>
#g-acsri-Artboard_5-group2024-img rect, #g-acsri-Artboard_5-group2024-img circle, #g-acsri-Artboard_5-group2024-img path, #g-acsri-Artboard_5-group2024-img line, #g-acsri-Artboard_5-group2024-img polyline, #g-acsri-Artboard_5-group2024-img polygon { vector-effect: non-scaling-stroke; }
</style>
</svg>
