<?xml version="1.0" encoding="UTF-8"?>
<svg id="g-acsri-Artboard_1-group2023-img" xmlns="http://www.w3.org/2000/svg" baseProfile="tiny" version="1.2" viewBox="0 0 1200 800">
  <!-- Generator: Adobe Illustrator 29.6.1, SVG Export Plug-In . SVG Version: 2.1.1 Build 9)  -->
  <path d="M872.601,170.934H344.319c-3.039.018-7.626-.258-13.047-1.826-.198-.057-.805-.234-1.524-.471,0,0-7.094-2.305-12.606-6.752-10.138-8.18-11.109-18.868-11.257-21.848v-40.165c0-17.064,17.207-30.898,38.433-30.898h528.283c21.226,0,38.433,13.833,38.433,30.898v40.165c0,17.064-17.207,30.898-38.433,30.898Z" fill="#b9d9eb"/>
  <path d="M283.079,149.437" fill="#b9d9eb"/>
  <path d="M331.272,168.662" fill="#b9d9eb"/>
  <g id="direct23">
    <g id="Airbnb_Inc">
      <path id="p_1177.8892547487824" d="M309.457,743.346c-130.875,0-236.97-106.095-236.97-236.97s106.095-236.97,236.97-236.97,236.97,106.095,236.97,236.97-106.095,236.97-236.97,236.97Z" fill="#a53860"/>
    </g>
    <text transform="translate(224.924 479.569)" display="none" fill="#fff" font-family="Roboto-Regular, Roboto" font-size="35.64" isolation="isolate"><tspan x="0" y="0">Airbnb, Inc.</tspan></text>
    <text transform="translate(169.372 545.222)" display="none" fill="#fff" font-family="Roboto-Bold, Roboto" font-size="56.7" font-weight="700" isolation="isolate"><tspan x="0" y="0">$4,869,171</tspan></text>
    <path d="M333.983,191.565" fill="#a53860"/>
    <path d="M327.849,246.786" fill="#b9d9eb"/>
    <g>
      <path d="M359.744,170.347c-12.941,32.78-31.731,81.439-52.794,139.783-1.535,4.253-3.034,8.421-4.494,12.502" fill="none" stroke="#000" stroke-miterlimit="10"/>
      <polygon points="300.082 329.277 299.614 318.54 302.644 322.135 307.267 321.285 300.082 329.277"/>
    </g>
  </g>
  <g>
    <g>
      <path d="M953.26,81.662v31.612" fill="#fff"/>
      <g>
        <path d="M953.26,88.722v24.551" fill="none" stroke="#000" stroke-miterlimit="10"/>
        <polygon points="953.26 81.662 949.195 91.611 953.26 89.25 957.325 91.611 953.26 81.662"/>
      </g>
    </g>
    <text transform="translate(967.309 213.98)" display="none" font-family="Roboto-Regular, Roboto" font-size="14"><tspan x="0" y="0">The down arrows represent direct </tspan><tspan x="0" y="16.8">investment into a company. </tspan></text>
    <text transform="translate(967.309 93.638)" display="none" font-family="Roboto-Regular, Roboto" font-size="14"><tspan x="0" y="0">The up arrows represent Columbia </tspan><tspan x="0" y="16.8">as the recipient of contributions, </tspan><tspan x="0" y="33.6">gifts, and grants, which is why </tspan><tspan x="0" y="50.4">Columbia is exposed to or benefits </tspan><tspan x="0" y="67.2">from the money of these </tspan><tspan x="0" y="84">companies, instead of directly </tspan><tspan x="0" y="100.8">invested in them. </tspan></text>
    <g>
      <path d="M953.26,234.115v-31.612" fill="#fff"/>
      <g>
        <path d="M953.26,227.054v-24.551" fill="none" stroke="#000" stroke-miterlimit="10"/>
        <polygon points="953.26 234.115 957.326 224.166 953.26 226.527 949.196 224.166 953.26 234.115"/>
      </g>
    </g>
  </g>
  <g>
    <g id="_iShares_Intermediate_Term_Corporate_Bond_ETF">
      <path id="p_1232.8826589449548" d="M1037.351,513.051c-30.86,0-55.877-25.017-55.877-55.877s25.017-55.877,55.877-55.877,55.877,25.017,55.877,55.877-25.017,55.877-55.877,55.877Z" fill="#94d2bd"/>
    </g>
    <g id="iShares_Core_MSCI_Emerging_Markets_ETF43">
      <path id="p_1224.3430755101604" d="M806.982,505.916c-10.353,0-18.745-8.393-18.745-18.745s8.393-18.745,18.745-18.745,18.745,8.393,18.745,18.745-8.393,18.745-18.745,18.745Z" fill="#d9ed92"/>
    </g>
    <text transform="translate(971.315 436.353)" display="none" font-family="Roboto-Regular, Roboto" font-size="15" isolation="isolate"><tspan x="0" y="0">iShares Intermediate </tspan><tspan x="-17.596" y="18">Term Corporate Bond ETF</tspan></text>
    <text transform="translate(994.644 480.913)" display="none" font-family="Roboto-Bold, Roboto" font-size="20" font-weight="700" isolation="isolate"><tspan x="0" y="0">$277,999</tspan></text>
    <text transform="translate(812.185 444.15)" display="none" font-family="Roboto-Regular, Roboto" font-size="14" isolation="isolate"><tspan x="0" y="0">iShares Core </tspan><tspan x="0" y="16.8">MSCI Emerging </tspan><tspan x="0" y="33.6">Markets 670 SHS</tspan></text>
    <text transform="translate(811.981 496.924)" display="none" font-family="Roboto-Bold, Roboto" font-size="16" font-weight="700" isolation="isolate"><tspan x="0" y="0">$31,288</tspan></text>
    <g id="Microsoft_Corp.">
      <path id="p_804.2231735218555" d="M688.696,489.964c-16.567.003-30-13.425-30.003-29.992-.003-16.567,13.425-30,29.992-30.003h.011c16.567-.003,30,13.425,30.003,29.992.003,16.567-13.425,30-29.992,30.003h-.011Z" fill="#abc4ff"/>
    </g>
    <g id="Alphabet_Inc.">
      <path id="p_731.3220017612871" d="M690.711,414.761c-14.545.003-26.338-11.786-26.341-26.332-.003-14.545,11.786-26.338,26.332-26.341h.01c14.545-.003,26.338,11.786,26.341,26.332.003,14.545-11.786,26.338-26.332,26.341h-.01Z" fill="#ffbe0b"/>
    </g>
    <g id="Amazon.com_x2C__Inc.">
      <path id="p_971.0529753396582" d="M622.086,367.394c-12.919,0-23.392-10.473-23.392-23.392s10.473-23.392,23.392-23.392,23.392,10.473,23.392,23.392-10.473,23.392-23.392,23.392Z" fill="#e0b1cb"/>
    </g>
    <text transform="translate(562.655 461.26)" display="none" font-family="Roboto-Regular, Roboto" font-size="14" isolation="isolate"><tspan x="0" y="0">Microsoft Corporation</tspan></text>
    <text transform="translate(640.649 482.328)" display="none" font-family="Roboto-Bold, Roboto" font-size="16" font-weight="700" isolation="isolate"><tspan x="0" y="0">$69,068</tspan></text>
    <text transform="translate(621.06 383.792)" display="none" font-family="Roboto-Regular, Roboto" font-size="14" isolation="isolate"><tspan x="0" y="0">Alphabet Inc.</tspan></text>
    <text transform="translate(642.033 404.184)" display="none" font-family="Roboto-Bold, Roboto" font-size="16" font-weight="700" isolation="isolate"><tspan x="0" y="0">$53,238</tspan></text>
    <text transform="translate(518.297 334.631)" display="none" font-family="Roboto-Regular, Roboto" font-size="14" isolation="isolate"><tspan x="0" y="0">Amazon.com, Inc.</tspan></text>
    <text transform="translate(570.606 354.674)" display="none" font-family="Roboto-Bold, Roboto" font-size="16" font-weight="700" isolation="isolate"><tspan x="0" y="0">$42,000</tspan></text>
    <g>
      <path d="M848.496,279.311c-9.246-25.459-22.94-63.144-39.254-107.958-.996-2.735-1.974-5.424-2.936-8.064" fill="none" stroke="#000" stroke-miterlimit="10"/>
      <polygon points="803.89 156.657 811.115 164.615 806.487 163.787 803.475 167.396 803.89 156.657"/>
    </g>
    <g>
      <path d="M889.999,343.818c77.472,14.84,160.275,36.807,147.01,62.935-.645,1.27-1.503,2.523-2.557,3.758" fill="none" stroke="#000" stroke-miterlimit="10"/>
      <polygon points="1029.272 415.323 1033.608 405.488 1034.733 410.053 1039.254 411.338 1029.272 415.323"/>
    </g>
    <g>
      <path d="M831.206,363.898c-19.004,25.608-39.316,63.515-36.062,108.603.191,2.649.459,5.253.795,7.814" fill="none" stroke="#000" stroke-miterlimit="10"/>
      <polygon points="797.042 487.287 791.517 478.068 795.893 479.786 799.554 476.837 797.042 487.287"/>
    </g>
    <g id="Microsoft_Corp.1" data-name="Microsoft_Corp.">
      <path id="p_804.22317352185551" data-name="p_804.2231735218555" d="M796.021,671.053c-16.567.003-30-13.425-30.003-29.992-.003-16.567,13.425-30,29.992-30.003h.011c16.567-.003,30,13.425,30.003,29.992.003,16.567-13.425,30-29.992,30.003h-.011Z" fill="#ffa5ab"/>
    </g>
    <g id="Microsoft_Corp.2" data-name="Microsoft_Corp.">
      <path id="p_804.22317352185552" data-name="p_804.2231735218555" d="M986.204,672.094c-16.567.003-30-13.425-30.003-29.992-.003-16.567,13.425-30,29.992-30.003h.011c16.567-.003,30,13.425,30.003,29.992.003,16.567-13.425,30-29.992,30.003h-.011Z" fill="#2a9d8f"/>
    </g>
    <text transform="translate(764.077 667.564) scale(.987 1)" display="none" font-family="Roboto-Regular, Roboto" font-size="12" isolation="isolate"><tspan x="0" y="0">HD Hyundai </tspan><tspan x="-12.861" y="14.4">Heavy Industries</tspan></text>
    <text transform="translate(790.572 648.715) scale(.987 1)" display="none" font-family="Roboto-Bold, Roboto" font-size="20" font-weight="700" isolation="isolate"><tspan x="0" y="0">$</tspan></text>
    <text transform="translate(949.333 667.348) scale(.987 1)" display="none" font-family="Roboto-Regular, Roboto" font-size="12" isolation="isolate"><tspan x="0" y="0">Caterpillar Inc.</tspan></text>
    <text transform="translate(980.918 647.992) scale(.987 1)" display="none" font-family="Roboto-Bold, Roboto" font-size="20" font-weight="700" isolation="isolate"><tspan x="0" y="0">$</tspan></text>
    <path d="M720.473,333.483c25.527.521,51.055,1.042,76.582,1.563" fill="none"/>
    <g>
      <path d="M806.611,333.59c-22.715.503-55.639,1.584-91.552,4.091-29.956,2.091-52.519,4.513-68.349,6.514" fill="none" stroke="#000" stroke-miterlimit="10"/>
      <polygon points="639.711 345.11 649.116 339.908 647.247 344.221 650.068 347.982 639.711 345.11"/>
    </g>
    <g>
      <path d="M806.611,333.59c-13.717,1.892-33.599,5.956-55.286,15.378-17.304,7.518-30.523,16.174-40.005,23.498" fill="none" stroke="#000" stroke-miterlimit="10"/>
      <polygon points="705.824 376.892 711.115 367.537 711.781 372.191 716.152 373.918 705.824 376.892"/>
    </g>
    <g>
      <path d="M806.611,333.59c-13.501,4.852-33.07,15.269-54.415,39.427-18.555,21-32.339,45.463-41.793,65.2" fill="none" stroke="#000" stroke-miterlimit="10"/>
      <polygon points="707.413 444.608 708.108 433.882 710.731 437.784 715.419 437.438 707.413 444.608"/>
    </g>
    <g>
      <path d="M995.799,494.206c-26.129,5.741-64.001,18.069-105.311,46.655-36.915,25.545-64.071,55.421-82.399,79.099" fill="none" stroke="#000" stroke-miterlimit="10"/>
      <polygon points="803.816 625.576 806.666 615.213 808.446 619.564 813.107 620.174 803.816 625.576"/>
    </g>
    <g>
      <path d="M995.327,494.436c-2.169,5.74-5.313,18.065-8.743,46.645-3.003,25.028-5.228,54.214-6.748,77.652" fill="none" stroke="#000" stroke-miterlimit="10"/>
      <polygon points="979.39 625.779 976.039 615.567 979.927 618.21 984.149 616.143 979.39 625.779"/>
    </g>
    <g>
      <path d="M801.441,504.612c-10.73,25.294-22.197,62.736-20.36,107.271.106,2.567.253,5.092.438,7.575" fill="none" stroke="#000" stroke-miterlimit="10"/>
      <polygon points="782.152 626.488 777.24 616.928 781.495 618.928 785.34 616.224 782.152 626.488"/>
    </g>
    <rect x="770.078" y="194.578" width="110.395" height="29.411" rx="7.341" ry="7.341" fill="#d0f4de"/>
    <text transform="translate(774.802 217.194) scale(.987 1)" display="none" font-family="Roboto-Bold, Roboto" font-size="24" font-weight="700" isolation="isolate"><tspan x="0" y="0">$154,709</tspan></text>
    <g id="Columbia_University_Trust_U_x2F_W_E_Reussner__x28_2022_x29_">
      <path id="p_989.0262009642302" d="M850.302,400.555c-38.713,0-69.994-32.232-75.937-64.226-1.147-6.172-1.1-10.991-1.054-12.762.971-37.34,37.118-77.012,76.966-77.012h.025c42.514-.007,76.984,34.462,76.991,76.987.007,42.526-34.452,77.006-76.966,77.013h-.025Z" fill="#d0f4de"/>
    </g>
    <text transform="translate(783.99 306.529)" display="none" font-family="Roboto-Regular, Roboto" font-size="15" isolation="isolate"><tspan x="0" y="0">Columbia University </tspan><tspan x="-6.712" y="18">Trust U/W E Reussner </tspan><tspan x="44.286" y="36">(2022)</tspan></text>
    <text transform="translate(841.113 381.616)" display="none" font-family="Roboto-Bold, Roboto" font-size="32" font-weight="700" isolation="isolate"><tspan x="0" y="0">$</tspan></text>
  </g>
<style>
#g-acsri-Artboard_1-group2023-img rect, #g-acsri-Artboard_1-group2023-img circle, #g-acsri-Artboard_1-group2023-img path, #g-acsri-Artboard_1-group2023-img line, #g-acsri-Artboard_1-group2023-img polyline, #g-acsri-Artboard_1-group2023-img polygon { vector-effect: non-scaling-stroke; }
</style>
</svg>
