<?xml version="1.0" encoding="UTF-8"?>
<svg id="g-acsri-Artboard_4-group2016-img" xmlns="http://www.w3.org/2000/svg" baseProfile="tiny" version="1.2" viewBox="0 0 600 439.803">
  <!-- Generator: Adobe Illustrator 29.6.1, SVG Export Plug-In . SVG Version: 2.1.1 Build 9)  -->
  <g id="Caterpillar_Inc.">
    <path id="p_717.3456713788878" d="M84.903,205.684c-26.901.005-48.712-21.799-48.717-48.7-.005-26.901,21.799-48.712,48.7-48.717h.016c26.901-.005,48.712,21.799,48.717,48.7.005,26.901-21.799,48.712-48.7,48.717h-.016Z" fill="none" stroke="#2a9d8f" stroke-dasharray="12" stroke-miterlimit="10" stroke-width="4"/>
  </g>
  <g id="Caterpillar_Inc.1" data-name="Caterpillar_Inc.">
    <path id="p_717.34567137888781" data-name="p_717.3456713788878" d="M191.233,203.158c-26.901.005-48.712-21.799-48.717-48.7-.005-26.901,21.799-48.712,48.7-48.717h.016c26.901-.005,48.712,21.799,48.717,48.7.005,26.901-21.799,48.712-48.7,48.717h-.016Z" fill="none" stroke="#277da1" stroke-dasharray="12" stroke-miterlimit="10" stroke-width="4"/>
  </g>
  <g id="Caterpillar_Inc.2" data-name="Caterpillar_Inc.">
    <path id="p_717.34567137888782" data-name="p_717.3456713788878" d="M299.128,203.158c-26.901.005-48.712-21.799-48.717-48.7-.005-26.901,21.799-48.712,48.7-48.717h.016c26.901-.005,48.712,21.799,48.717,48.7.005,26.901-21.799,48.712-48.7,48.717h-.016Z" fill="none" stroke="#e4c1f9" stroke-dasharray="12" stroke-miterlimit="10" stroke-width="4"/>
  </g>
  <g id="Caterpillar_Inc.3" data-name="Caterpillar_Inc.">
    <path id="p_717.34567137888783" data-name="p_717.3456713788878" d="M407.023,203.158c-26.901.005-48.712-21.799-48.717-48.7-.005-26.901,21.799-48.712,48.7-48.717h.016c26.901-.005,48.712,21.799,48.717,48.7.005,26.901-21.799,48.712-48.7,48.717h-.016Z" fill="none" stroke="#f94144" stroke-dasharray="12" stroke-miterlimit="10" stroke-width="4"/>
  </g>
  <g id="Caterpillar_Inc.4" data-name="Caterpillar_Inc.">
    <path id="p_717.34567137888784" data-name="p_717.3456713788878" d="M83.626,318.641c-26.901.005-48.712-21.799-48.717-48.7-.005-26.901,21.799-48.712,48.7-48.717h.016c26.901-.005,48.712,21.799,48.717,48.7.005,26.901-21.799,48.712-48.7,48.717h-.016Z" fill="none" stroke="#f4a261" stroke-dasharray="12" stroke-miterlimit="10" stroke-width="4"/>
  </g>
  <g id="Caterpillar_Inc.5" data-name="Caterpillar_Inc.">
    <path id="p_717.34567137888785" data-name="p_717.3456713788878" d="M189.956,316.116c-26.901.005-48.712-21.799-48.717-48.7-.005-26.901,21.799-48.712,48.7-48.717h.016c26.901-.005,48.712,21.799,48.717,48.7.005,26.901-21.799,48.712-48.7,48.717h-.016Z" fill="none" stroke="#57cc99" stroke-dasharray="12" stroke-miterlimit="10" stroke-width="4"/>
  </g>
  <g id="Caterpillar_Inc.6" data-name="Caterpillar_Inc.">
    <path id="p_717.34567137888786" data-name="p_717.3456713788878" d="M297.851,316.115c-26.901.005-48.712-21.799-48.717-48.7-.005-26.901,21.799-48.712,48.7-48.717h.016c26.901-.005,48.712,21.799,48.717,48.7.005,26.901-21.799,48.712-48.7,48.717h-.016Z" fill="none" stroke="#ffa5ab" stroke-dasharray="12" stroke-miterlimit="10" stroke-width="4"/>
  </g>
  <g id="Caterpillar_Inc.7" data-name="Caterpillar_Inc.">
    <path id="p_717.34567137888787" data-name="p_717.3456713788878" d="M405.746,316.115c-26.901.005-48.712-21.799-48.717-48.7-.005-26.901,21.799-48.712,48.7-48.717h.016c26.901-.005,48.712,21.799,48.717,48.7.005,26.901-21.799,48.712-48.7,48.717h-.016Z" fill="none" stroke="#e9c46a" stroke-dasharray="12" stroke-miterlimit="10" stroke-width="4"/>
  </g>
  <g id="Caterpillar_Inc.8" data-name="Caterpillar_Inc.">
    <path id="p_717.34567137888788" data-name="p_717.3456713788878" d="M521.27,256.883c-26.901.005-48.712-21.799-48.717-48.7-.005-26.901,21.799-48.712,48.7-48.717h.016c26.901-.005,48.712,21.799,48.717,48.7.005,26.901-21.799,48.712-48.7,48.717h-.016Z" fill="#2e3192"/>
  </g>
<style>
#g-acsri-Artboard_4-group2016-img rect, #g-acsri-Artboard_4-group2016-img circle, #g-acsri-Artboard_4-group2016-img path, #g-acsri-Artboard_4-group2016-img line, #g-acsri-Artboard_4-group2016-img polyline, #g-acsri-Artboard_4-group2016-img polygon { vector-effect: non-scaling-stroke; }
</style>
</svg>
