<?xml version="1.0" encoding="UTF-8"?>
<svg id="g-acsri-Artboard_5-group2016-img" xmlns="http://www.w3.org/2000/svg" baseProfile="tiny" version="1.2" viewBox="0 0 300 700">
  <!-- Generator: Adobe Illustrator 29.6.1, SVG Export Plug-In . SVG Version: 2.1.1 Build 9)  -->
  <g id="Caterpillar_Inc.">
    <path id="p_717.3456713788878" d="M102.317,303.55c-22.866.004-41.405-18.53-41.409-41.395-.004-22.866,18.53-41.405,41.395-41.409h.014c22.866-.004,41.405,18.53,41.409,41.395.004,22.866-18.53,41.405-41.395,41.409h-.014Z" fill="none" stroke="#2a9d8f" stroke-dasharray="12" stroke-miterlimit="10" stroke-width="4"/>
  </g>
  <g id="Caterpillar_Inc.1" data-name="Caterpillar_Inc.">
    <path id="p_717.34567137888781" data-name="p_717.3456713788878" d="M192.697,301.404c-22.866.004-41.405-18.53-41.409-41.395-.004-22.866,18.53-41.405,41.395-41.409h.014c22.866-.004,41.405,18.53,41.409,41.395.004,22.866-18.53,41.405-41.395,41.409h-.014Z" fill="none" stroke="#277da1" stroke-dasharray="12" stroke-miterlimit="10" stroke-width="4"/>
  </g>
  <g id="Caterpillar_Inc.2" data-name="Caterpillar_Inc.">
    <path id="p_717.34567137888782" data-name="p_717.3456713788878" d="M104.89,495.578c-22.866.004-41.405-18.53-41.409-41.395-.004-22.866,18.53-41.405,41.395-41.409h.014c22.866-.004,41.405,18.53,41.409,41.395.004,22.866-18.53,41.405-41.395,41.409h-.014Z" fill="none" stroke="#e4c1f9" stroke-dasharray="12" stroke-miterlimit="10" stroke-width="4"/>
  </g>
  <g id="Caterpillar_Inc.3" data-name="Caterpillar_Inc.">
    <path id="p_717.34567137888783" data-name="p_717.3456713788878" d="M196.601,495.578c-22.866.004-41.405-18.53-41.409-41.395-.004-22.866,18.53-41.405,41.395-41.409h.014c22.866-.004,41.405,18.53,41.409,41.395.004,22.866-18.53,41.405-41.395,41.409h-.014Z" fill="none" stroke="#f94144" stroke-dasharray="12" stroke-miterlimit="10" stroke-width="4"/>
  </g>
  <g id="Caterpillar_Inc.4" data-name="Caterpillar_Inc.">
    <path id="p_717.34567137888784" data-name="p_717.3456713788878" d="M101.232,399.564c-22.866.004-41.405-18.53-41.409-41.395-.004-22.866,18.53-41.405,41.395-41.409h.014c22.866-.004,41.405,18.53,41.409,41.395.004,22.866-18.53,41.405-41.395,41.409h-.014Z" fill="none" stroke="#f4a261" stroke-dasharray="12" stroke-miterlimit="10" stroke-width="4"/>
  </g>
  <g id="Caterpillar_Inc.5" data-name="Caterpillar_Inc.">
    <path id="p_717.34567137888785" data-name="p_717.3456713788878" d="M191.612,397.418c-22.866.004-41.405-18.53-41.409-41.395-.004-22.866,18.53-41.405,41.395-41.409h.014c22.866-.004,41.405,18.53,41.409,41.395.004,22.866-18.53,41.405-41.395,41.409h-.014Z" fill="none" stroke="#57cc99" stroke-dasharray="12" stroke-miterlimit="10" stroke-width="4"/>
  </g>
  <g id="Caterpillar_Inc.6" data-name="Caterpillar_Inc.">
    <path id="p_717.34567137888786" data-name="p_717.3456713788878" d="M103.805,591.592c-22.866.004-41.405-18.53-41.409-41.395-.004-22.866,18.53-41.405,41.395-41.409h.014c22.866-.004,41.405,18.53,41.409,41.395.004,22.866-18.53,41.405-41.395,41.409h-.014Z" fill="none" stroke="#ffa5ab" stroke-dasharray="12" stroke-miterlimit="10" stroke-width="4"/>
  </g>
  <g id="Caterpillar_Inc.7" data-name="Caterpillar_Inc.">
    <path id="p_717.34567137888787" data-name="p_717.3456713788878" d="M195.515,591.592c-22.866.004-41.405-18.53-41.409-41.395-.004-22.866,18.53-41.405,41.395-41.409h.014c22.866-.004,41.405,18.53,41.409,41.395.004,22.866-18.53,41.405-41.395,41.409h-.014Z" fill="none" stroke="#e9c46a" stroke-dasharray="12" stroke-miterlimit="10" stroke-width="4"/>
  </g>
  <g id="Caterpillar_Inc.8" data-name="Caterpillar_Inc.">
    <path id="p_717.34567137888788" data-name="p_717.3456713788878" d="M148.916,216.322c-22.866.004-41.405-18.53-41.409-41.395-.004-22.866,18.53-41.405,41.395-41.409h.014c22.866-.004,41.405,18.53,41.409,41.395.004,22.866-18.53,41.405-41.395,41.409h-.014Z" fill="#2e3192"/>
  </g>
<style>
#g-acsri-Artboard_5-group2016-img rect, #g-acsri-Artboard_5-group2016-img circle, #g-acsri-Artboard_5-group2016-img path, #g-acsri-Artboard_5-group2016-img line, #g-acsri-Artboard_5-group2016-img polyline, #g-acsri-Artboard_5-group2016-img polygon { vector-effect: non-scaling-stroke; }
</style>
</svg>
