<?xml version="1.0" encoding="UTF-8"?>
<svg id="g-acsri-Artboard_1-group2024-img" xmlns="http://www.w3.org/2000/svg" baseProfile="tiny" version="1.2" viewBox="0 0 1200 800">
  <!-- Generator: Adobe Illustrator 29.6.1, SVG Export Plug-In . SVG Version: 2.1.1 Build 9)  -->
  <g id="Caterpillar_Inc.">
    <path id="p_717.3456713788878" d="M125.24,593.083c-41.386.007-74.942-33.538-74.949-74.924-.007-41.386,33.538-74.942,74.924-74.949h.025c41.386-.007,74.942,33.538,74.949,74.924.007,41.386-33.538,74.942-74.924,74.949h-.025Z" fill="#16425b"/>
  </g>
  <g id="Caterpillar_Inc.1" data-name="Caterpillar_Inc.">
    <path id="p_717.34567137888781" data-name="p_717.3456713788878" d="M301.307,590.298c-41.386.007-74.942-33.538-74.949-74.924-.007-41.386,33.538-74.942,74.924-74.949h.025c41.386-.007,74.942,33.538,74.949,74.924.007,41.386-33.538,74.942-74.924,74.949h-.025Z" fill="#ffd972"/>
  </g>
  <g>
    <path d="M378.499,166.577c-50.909,62.045-126.177,153.968-215.37,263.573-8.494,10.439-16.759,20.6-24.787,30.474" fill="none" stroke="#000" stroke-miterlimit="10"/>
    <polygon points="133.889 466.103 137.012 455.819 138.677 460.216 143.32 460.949 133.889 466.103"/>
  </g>
  <g>
    <path d="M377.864,167.074c-17.562,59.022-42.09,146.736-66.117,252.269-2.159,9.484-4.229,18.736-6.212,27.749" fill="none" stroke="#000" stroke-miterlimit="10"/>
    <polygon points="304.024 453.988 302.221 443.393 305.675 446.582 310.156 445.162 304.024 453.988"/>
  </g>
  <path d="M872.562,170.723H344.28c-3.039.018-7.626-.258-13.047-1.826-.198-.057-.805-.234-1.524-.471,0,0-7.094-2.305-12.606-6.752-10.138-8.18-11.109-18.868-11.257-21.848v-40.165c0-17.064,17.207-30.898,38.433-30.898h528.283c21.226,0,38.433,13.833,38.433,30.898v40.165c0,17.064-17.207,30.898-38.433,30.898Z" fill="#b9d9eb"/>
  <g id="microsoft">
    <path id="p_949.2711291565297" d="M598.324,722.762c-36.877.008-66.778-30.264-66.786-67.614-.008-37.35,29.88-67.635,66.757-67.643h.029c36.877-.008,66.778,30.264,66.786,67.614.008,37.35-29.88,67.635-66.757,67.643h-.029Z" fill="#abc4ff"/>
  </g>
  <g id="Alphabet">
    <path id="p_613.5263539744518" d="M496.857,589.197c-31.687,0-57.374-26.017-57.374-58.11s25.687-58.11,57.374-58.11,57.374,26.017,57.374,58.11-25.687,58.11-57.374,58.11Z" fill="#ffbe0b"/>
  </g>
  <g id="Amazon">
    <path id="p_436.09559722526285" d="M465.193,452.842c-27.473,0-49.744-22.557-49.744-50.382s22.271-50.382,49.744-50.382,49.744,22.557,49.744,50.382-22.271,50.382-49.744,50.382Z" fill="#e0b1cb"/>
  </g>
  <g id="microsoft_uw">
    <path id="p_716.642426038251" d="M991.918,579.678c-21.589,0-39.09-17.726-39.09-39.592s17.501-39.592,39.09-39.592,39.09,17.726,39.09,39.592-17.501,39.592-39.09,39.592Z" fill="#abc4ff"/>
  </g>
  <g id="Amazon_uw">
    <path id="p_743.0202952505553" d="M906.715,638.826c-16.318,0-29.546-13.398-29.546-29.925s13.228-29.925,29.546-29.925,29.546,13.398,29.546,29.925-13.228,29.925-29.546,29.925Z" fill="#e0b1cb"/>
  </g>
  <g id="Alphabet_uw">
    <path id="p_836.7981677895087" d="M1104.81,599.193c-16.116,0-29.181-13.233-29.181-29.556s13.065-29.556,29.181-29.556,29.181,13.233,29.181,29.556-13.065,29.556-29.181,29.556Z" fill="#ffbe0b"/>
  </g>
  <g id="Booking">
    <path id="p_1012.1771434341059" d="M1087.146,441.388c-10.631,0-19.25-8.729-19.25-19.497s8.618-19.497,19.25-19.497,19.25,8.729,19.25,19.497-8.618,19.497-19.25,19.497Z" fill="#bcbd22"/>
  </g>
  <g id="Raytheon">
    <path id="p_1019.8498859454652" d="M660.98,569.638c-17.85,0-32.321-14.656-32.321-32.735s14.47-32.735,32.321-32.735,32.321,14.656,32.321,32.735-14.47,32.735-32.321,32.735Z" fill="#e9c46a"/>
  </g>
  <g>
    <path d="M656.521,289.104c-.213-27.34-.441-67.813-.405-115.952.002-2.961.005-5.871.009-8.729" fill="none" stroke="#000" stroke-miterlimit="10"/>
    <polygon points="656.137 157.365 660.189 167.32 656.127 164.953 652.059 167.309 656.137 157.365"/>
  </g>
  <g>
    <path d="M910.995,287.765c-8.845-27.172-22.318-67.257-39.674-114.45-1.105-3.005-2.195-5.955-3.269-8.848" fill="none" stroke="#000" stroke-miterlimit="10"/>
    <polygon points="865.589 157.852 872.859 165.768 868.227 164.967 865.236 168.594 865.589 157.852"/>
  </g>
  <g id="Raytheon1" data-name="Raytheon">
    <path id="p_1019.84988594546521" data-name="p_1019.8498859454652" d="M791.826,585.919c-17.85,0-32.321-14.656-32.321-32.735s14.47-32.735,32.321-32.735,32.321,14.656,32.321,32.735-14.47,32.735-32.321,32.735Z" fill="#90be6d"/>
  </g>
  <g>
    <path d="M588.041,391.457c-11.339.428-27.774,1.348-45.7,3.481-12.923,1.537-23.089,3.285-30.712,4.831" fill="none" stroke="#000" stroke-miterlimit="10"/>
    <polygon points="504.729 401.258 513.682 395.312 512.168 399.763 515.284 403.283 504.729 401.258"/>
  </g>
  <g>
    <path d="M592.211,401.281c-9.664,4.384-23.671,13.797-38.949,35.625-13.074,18.678-22.838,40.388-29.595,58.072" fill="none" stroke="#000" stroke-miterlimit="10"/>
    <polygon points="521.206 501.593 520.99 490.847 523.935 494.512 528.576 493.77 521.206 501.593"/>
  </g>
  <g>
    <path d="M724.56,406.024c7.331,5.859,17.956,18.439,29.545,47.611,10.189,25.647,17.728,55.571,22.866,79.542" fill="none" stroke="#000" stroke-miterlimit="10"/>
    <polygon points="778.422 540.086 772.325 531.235 776.801 532.672 780.267 529.498 778.422 540.086"/>
  </g>
  <g>
    <path d="M860.147,396.199c-8.065,6.231-19.754,19.61-32.504,50.635-11.276,27.437-19.601,59.475-25.255,85.044" fill="none" stroke="#000" stroke-miterlimit="10"/>
    <polygon points="800.891 538.777 799.121 528.176 802.565 531.376 807.051 529.97 800.891 538.777"/>
  </g>
  <g>
    <path d="M906.715,437.188c-.062,6.491-.152,20.427-.25,52.745-.087,28.625-.151,62.059-.194,88.714" fill="none" stroke="#000" stroke-miterlimit="10"/>
    <polygon points="906.259 585.707 902.215 575.749 906.276 578.118 910.345 575.766 906.259 585.707"/>
  </g>
  <g>
    <path d="M1001.457,391.543c14.067,6.854,34.455,21.572,56.694,55.701,19.88,30.509,34.503,66.19,44.37,94.465" fill="none" stroke="#000" stroke-miterlimit="10"/>
    <polygon points="1104.81 548.385 1097.625 540.392 1102.248 541.242 1105.277 537.647 1104.81 548.385"/>
  </g>
  <g>
    <path d="M1007.247,372.2c9.412,1.991,23.055,6.266,37.935,16.181,11.458,7.634,20.306,16.383,26.759,23.911" fill="none" stroke="#000" stroke-miterlimit="10"/>
    <polygon points="1076.404 417.761 1066.933 412.68 1071.571 411.911 1073.2 407.502 1076.404 417.761"/>
  </g>
  <g>
    <path d="M660.803,443.717v26.062c0,12.893,0,27.76,0,40.265" fill="none" stroke="#000" stroke-miterlimit="10"/>
    <polygon points="660.803 517.101 656.738 507.152 660.803 509.513 664.868 507.152 660.803 517.101"/>
  </g>
  <g>
    <path d="M991.133,402.754c0,4.997,0,15.727,0,40.609v66.677" fill="none" stroke="#000" stroke-miterlimit="10"/>
    <polygon points="991.133 517.101 987.068 507.152 991.133 509.513 995.198 507.152 991.133 517.101"/>
  </g>
  <g>
    <path d="M953.437,81.662v31.612" fill="#fff"/>
    <g>
      <path d="M953.437,88.722v24.551" fill="none" stroke="#000" stroke-miterlimit="10"/>
      <polygon points="953.437 81.662 949.372 91.611 953.437 89.25 957.502 91.611 953.437 81.662"/>
    </g>
  </g>
  <g>
    <path d="M953.437,234.115v-31.612" fill="#fff"/>
    <g>
      <path d="M953.437,227.054v-24.551" fill="none" stroke="#000" stroke-miterlimit="10"/>
      <polygon points="953.437 234.115 957.503 224.166 953.437 226.527 949.373 224.166 953.437 234.115"/>
    </g>
  </g>
  <g>
    <path d="M598.324,599.122v-212.301" fill="none" stroke="#000" stroke-miterlimit="10"/>
    <polygon points="598.324 606.182 602.389 596.233 598.324 598.594 594.26 596.233 598.324 606.182"/>
  </g>
  <g id="Columbia_University_Trust_U_x2F_W_E_Reussner__x28_2023_x29_">
    <path id="p_687.1397858804936" d="M660.98,443.717c-42.701.005-77.321-35.052-77.325-78.301-.005-43.249,34.608-78.313,77.309-78.318h.016c42.701-.005,77.321,35.052,77.325,78.301s-34.608,78.313-77.309,78.318h-.016Z" fill="#3d348b"/>
  </g>
  <rect x="600" y="214.861" width="110.395" height="29.411" rx="7.341" ry="7.341" fill="#3d348b"/>
  <rect x="810.391" y="214.052" width="110.395" height="29.411" rx="7.033" ry="7.033" fill="#3c6e71"/>
  <g id="Columbia_University_Tr_Uw_For_P60266007__x28_2023_x29_">
    <path id="p_902.0955334450956" d="M929.921,440.718c-42.701.005-77.321-35.052-77.325-78.301-.005-43.249,34.608-78.313,77.309-78.318h.016c42.701-.005,77.321,35.052,77.325,78.301.005,43.249-34.608,78.313-77.309,78.318h-.016Z" fill="#3c6e71"/>
  </g>
<style>
#g-acsri-Artboard_1-group2024-img rect, #g-acsri-Artboard_1-group2024-img circle, #g-acsri-Artboard_1-group2024-img path, #g-acsri-Artboard_1-group2024-img line, #g-acsri-Artboard_1-group2024-img polyline, #g-acsri-Artboard_1-group2024-img polygon { vector-effect: non-scaling-stroke; }
</style>
</svg>
