<?xml version="1.0" encoding="UTF-8"?>
<svg id="g-acsri-Artboard_5-group2007-img" xmlns="http://www.w3.org/2000/svg" baseProfile="tiny" version="1.2" viewBox="0 0 300 700">
  <!-- Generator: Adobe Illustrator 29.6.1, SVG Export Plug-In . SVG Version: 2.1.1 Build 9)  -->
  <g id="General_Dynamics">
    <path id="p_1308.8027309000297" d="M194.964,337.73c-29.919.003-54.175-24.248-54.178-54.167-.003-29.919,24.248-54.175,54.167-54.178h.011c29.919-.003,54.175,24.248,54.178,54.167.003,29.919-24.248,54.175-54.167,54.178h-.011Z" fill="#577590"/>
  </g>
  <path id="p_1341.631418815377" d="M113.778,199.002c-26.726.004-48.395-21.658-48.399-48.384-.004-26.726,21.658-48.395,48.384-48.399h.014c26.726-.004,48.395,21.658,48.399,48.384.004,26.726-21.658,48.395-48.384,48.399" fill="#90be6d"/>
  <g id="Lockheed_Martin">
    <path id="p_1185.8237690595624" d="M110.087,467.001c-31.179,0-56.455-25.276-56.455-56.455s25.276-56.455,56.455-56.455,56.455,25.276,56.455,56.455-25.276,56.455-56.455,56.455Z" fill="#f4a261"/>
  </g>
<style>
#g-acsri-Artboard_5-group2007-img rect, #g-acsri-Artboard_5-group2007-img circle, #g-acsri-Artboard_5-group2007-img path, #g-acsri-Artboard_5-group2007-img line, #g-acsri-Artboard_5-group2007-img polyline, #g-acsri-Artboard_5-group2007-img polygon { vector-effect: non-scaling-stroke; }
</style>
</svg>
