<?xml version="1.0" encoding="UTF-8"?>
<svg id="g-acsri-Artboard_4-group2024-img" xmlns="http://www.w3.org/2000/svg" baseProfile="tiny" version="1.2" viewBox="0 0 600 439.803">
  <!-- Generator: Adobe Illustrator 29.6.1, SVG Export Plug-In . SVG Version: 2.1.1 Build 9)  -->
  <g id="Caterpillar_Inc.">
    <path id="p_717.3456713788878" d="M56.045,296.477c-20.693.003-37.471-16.769-37.475-37.462-.003-20.693,16.769-37.471,37.462-37.475h.013c20.693-.003,37.471,16.769,37.475,37.462.003,20.693-16.769,37.471-37.462,37.475h-.013Z" fill="#16425b"/>
  </g>
  <g id="Caterpillar_Inc.1" data-name="Caterpillar_Inc.">
    <path id="p_717.34567137888781" data-name="p_717.3456713788878" d="M144.078,295.084c-20.693.003-37.471-16.769-37.475-37.462-.003-20.693,16.769-37.471,37.462-37.475h.013c20.693-.003,37.471,16.769,37.475,37.462.003,20.693-16.769,37.471-37.462,37.475h-.013Z" fill="#ffd972"/>
  </g>
  <g>
    <path d="M182.674,83.223c-25.455,31.022-63.089,76.984-107.685,131.787-3.467,4.26-6.857,8.428-10.169,12.501" fill="none" stroke="#000" stroke-miterlimit="10"/>
    <polygon points="60.369 232.986 63.493 222.703 65.157 227.099 69.8 227.832 60.369 232.986"/>
  </g>
  <g>
    <path d="M182.356,83.472c-8.781,29.511-21.045,73.368-33.058,126.134-.806,3.542-1.588,7.019-2.345,10.43" fill="none" stroke="#000" stroke-miterlimit="10"/>
    <polygon points="145.436 226.929 143.633 216.334 147.088 219.522 151.568 218.103 145.436 226.929"/>
  </g>
  <path d="M429.706,85.296H165.564c-1.519.009-3.813-.129-6.523-.913-.099-.029-.402-.117-.762-.236,0,0-3.547-1.152-6.303-3.376-5.069-4.09-5.554-9.434-5.628-10.924v-20.083c0-8.532,8.603-15.449,19.216-15.449h264.141c10.613,0,19.216,6.917,19.216,15.449v20.083c0,8.532-8.604,15.449-19.216,15.449Z" fill="#b9d9eb"/>
  <g id="microsoft">
    <path id="p_949.2711291565297" d="M292.587,361.316c-18.439.004-33.389-15.132-33.393-33.807-.004-18.675,14.94-33.818,33.379-33.822h.014c18.439-.004,33.389,15.132,33.393,33.807.004,18.675-14.94,33.818-33.379,33.822h-.014Z" fill="#abc4ff"/>
  </g>
  <g id="Alphabet">
    <path id="p_613.5263539744518" d="M241.853,294.533c-15.843,0-28.687-13.008-28.687-29.055s12.844-29.055,28.687-29.055,28.687,13.008,28.687,29.055-12.844,29.055-28.687,29.055Z" fill="#ffbe0b"/>
  </g>
  <g id="Amazon">
    <path id="p_436.09559722526285" d="M226.021,226.356c-13.736,0-24.872-11.278-24.872-25.191s11.135-25.191,24.872-25.191,24.872,11.278,24.872,25.191-11.135,25.191-24.872,25.191Z" fill="#e0b1cb"/>
  </g>
  <g id="microsoft_uw">
    <path id="p_716.642426038251" d="M489.383,289.774c-10.795,0-19.545-8.863-19.545-19.796s8.751-19.796,19.545-19.796,19.545,8.863,19.545,19.796-8.751,19.796-19.545,19.796Z" fill="#abc4ff"/>
  </g>
  <g id="Amazon_uw">
    <path id="p_743.0202952505553" d="M446.782,319.348c-8.159,0-14.773-6.699-14.773-14.962s6.614-14.962,14.773-14.962,14.773,6.699,14.773,14.962-6.614,14.962-14.773,14.962Z" fill="#e0b1cb"/>
  </g>
  <g id="Alphabet_uw">
    <path id="p_836.7981677895087" d="M545.83,299.532c-8.058,0-14.591-6.616-14.591-14.778s6.532-14.778,14.591-14.778,14.591,6.616,14.591,14.778-6.532,14.778-14.591,14.778Z" fill="#ffbe0b"/>
  </g>
  <g id="Booking">
    <path id="p_1012.1771434341059" d="M536.998,220.629c-5.316,0-9.625-4.364-9.625-9.748s4.309-9.748,9.625-9.748,9.625,4.364,9.625,9.748-4.309,9.748-9.625,9.748Z" fill="#bcbd22"/>
  </g>
  <g id="Raytheon">
    <path id="p_1019.8498859454652" d="M323.915,284.754c-8.925,0-16.16-7.328-16.16-16.368s7.235-16.368,16.16-16.368,16.16,7.328,16.16,16.368-7.235,16.368-16.16,16.368Z" fill="#e9c46a"/>
  </g>
  <g>
    <path d="M321.685,144.487c-.107-13.67-.221-33.907-.202-57.976,0-.279,0-.556,0-.833" fill="none" stroke="#000" stroke-miterlimit="10"/>
    <polygon points="321.493 78.617 325.545 88.572 321.483 86.206 317.415 88.561 321.493 78.617"/>
  </g>
  <g>
    <path d="M448.922,143.817c-4.422-13.586-11.159-33.628-19.837-57.225-.137-.372-.273-.743-.409-1.112" fill="none" stroke="#000" stroke-miterlimit="10"/>
    <polygon points="426.219 78.861 433.489 86.777 428.857 85.976 425.866 89.603 426.219 78.861"/>
  </g>
  <g id="Raytheon1" data-name="Raytheon">
    <path id="p_1019.84988594546521" data-name="p_1019.8498859454652" d="M389.337,292.894c-8.925,0-16.16-7.328-16.16-16.368s7.235-16.368,16.16-16.368,16.16,7.328,16.16,16.368-7.235,16.368-16.16,16.368Z" fill="#90be6d"/>
  </g>
  <g>
    <path d="M287.445,195.664c-5.669.214-13.887.674-22.85,1.74-4.669.555-8.618,1.166-11.888,1.753" fill="none" stroke="#000" stroke-miterlimit="10"/>
    <polygon points="245.789 200.564 254.746 194.624 253.229 199.074 256.342 202.596 245.789 200.564"/>
  </g>
  <g>
    <path d="M289.53,200.576c-4.832,2.192-11.835,6.898-19.475,17.812-5.747,8.211-10.215,17.593-13.507,25.749" fill="none" stroke="#000" stroke-miterlimit="10"/>
    <polygon points="254.028 250.731 253.811 239.986 256.756 243.65 261.397 242.909 254.028 250.731"/>
  </g>
  <g>
    <path d="M355.705,202.947c3.665,2.929,8.978,9.219,14.773,23.805,4.616,11.62,8.145,24.996,10.678,36.322" fill="none" stroke="#000" stroke-miterlimit="10"/>
    <polygon points="382.635 269.978 376.538 261.127 381.014 262.565 384.48 259.39 382.635 269.978"/>
  </g>
  <g>
    <path d="M423.498,198.034c-4.032,3.115-9.877,9.805-16.252,25.318-5.142,12.512-9.057,26.938-11.851,39.078" fill="none" stroke="#000" stroke-miterlimit="10"/>
    <polygon points="393.87 269.324 392.1 258.723 395.544 261.922 400.03 260.516 393.87 269.324"/>
  </g>
  <g>
    <path d="M446.782,218.529c-.031,3.245-.076,10.214-.125,26.373-.04,13.076-.07,28.158-.091,40.83" fill="none" stroke="#000" stroke-miterlimit="10"/>
    <polygon points="446.554 292.788 442.51 282.83 446.57 285.2 450.64 282.848 446.554 292.788"/>
  </g>
  <g>
    <path d="M494.153,195.707c7.033,3.427,17.228,10.786,28.347,27.85,9.175,14.08,16.11,30.365,21.003,43.906" fill="none" stroke="#000" stroke-miterlimit="10"/>
    <polygon points="545.83 274.127 538.644 266.135 543.268 266.984 546.297 263.39 545.83 274.127"/>
  </g>
  <g>
    <path d="M497.048,186.035c4.706.996,11.527,3.133,18.968,8.09,4.438,2.957,8.093,6.248,11.014,9.331" fill="none" stroke="#000" stroke-miterlimit="10"/>
    <polygon points="531.626 208.815 522.009 204.017 526.622 203.111 528.121 198.656 531.626 208.815"/>
  </g>
  <g>
    <path d="M323.826,221.793v29.632" fill="none" stroke="#000" stroke-miterlimit="10"/>
    <polygon points="323.826 258.485 319.761 248.536 323.826 250.897 327.891 248.536 323.826 258.485"/>
  </g>
  <g>
    <path d="M488.991,201.312v50.114" fill="none" stroke="#000" stroke-miterlimit="10"/>
    <polygon points="488.991 258.485 484.926 248.536 488.991 250.897 493.056 248.536 488.991 258.485"/>
  </g>
  <g>
    <path d="M470.143,40.766v15.806" fill="#fff"/>
    <g>
      <path d="M470.143,47.826v8.745" fill="none" stroke="#000" stroke-miterlimit="10"/>
      <polygon points="470.143 40.766 466.078 50.715 470.143 48.354 474.207 50.715 470.143 40.766"/>
    </g>
  </g>
  <g>
    <path d="M470.143,116.992v-15.806" fill="#fff"/>
    <g>
      <path d="M470.143,109.932v-8.745" fill="none" stroke="#000" stroke-miterlimit="10"/>
      <polygon points="470.143 116.992 474.208 107.043 470.143 109.404 466.078 107.043 470.143 116.992"/>
    </g>
  </g>
  <g>
    <path d="M292.587,295.966v-102.62" fill="none" stroke="#000" stroke-miterlimit="10"/>
    <polygon points="292.587 303.026 296.652 293.077 292.587 295.438 288.522 293.077 292.587 303.026"/>
  </g>
  <g id="Columbia_University_Trust_U_x2F_W_E_Reussner__x28_2023_x29_">
    <path id="p_687.1397858804936" d="M323.915,221.793c-21.35.002-38.66-17.526-38.663-39.15-.002-21.624,17.304-39.156,38.654-39.159h.008c21.35-.002,38.66,17.526,38.663,39.15.002,21.624-17.304,39.156-38.654,39.159h-.008Z" fill="#3d348b"/>
  </g>
  <rect x="293.424" y="107.365" width="55.198" height="14.706" rx="7.341" ry="7.341" fill="#3d348b"/>
  <rect x="398.62" y="106.961" width="55.198" height="14.706" rx="7.033" ry="7.033" fill="#3c6e71"/>
  <g id="Columbia_University_Tr_Uw_For_P60266007__x28_2023_x29_">
    <path id="p_902.0955334450956" d="M458.385,220.294c-21.35.002-38.66-17.526-38.663-39.15-.002-21.624,17.304-39.156,38.654-39.159h.008c21.35-.002,38.66,17.526,38.663,39.15.002,21.624-17.304,39.156-38.654,39.159h-.008Z" fill="#3c6e71"/>
  </g>
<style>
#g-acsri-Artboard_4-group2024-img rect, #g-acsri-Artboard_4-group2024-img circle, #g-acsri-Artboard_4-group2024-img path, #g-acsri-Artboard_4-group2024-img line, #g-acsri-Artboard_4-group2024-img polyline, #g-acsri-Artboard_4-group2024-img polygon { vector-effect: non-scaling-stroke; }
</style>
</svg>
