<?xml version="1.0" encoding="UTF-8"?>
<svg id="g-acsri-Artboard_4-group2023-img" xmlns="http://www.w3.org/2000/svg" baseProfile="tiny" version="1.2" viewBox="0 0 600 439.803">
  <!-- Generator: Adobe Illustrator 29.6.1, SVG Export Plug-In . SVG Version: 2.1.1 Build 9)  -->
  <path d="M429.817,85.409H165.676c-1.519.009-3.813-.129-6.523-.913-.099-.029-.402-.117-.762-.236,0,0-3.547-1.152-6.303-3.376-5.069-4.09-5.554-9.434-5.628-10.924v-20.083c0-8.532,8.603-15.449,19.216-15.449h264.141c10.613,0,19.216,6.917,19.216,15.449v20.083c0,8.532-8.604,15.449-19.216,15.449Z" fill="#b9d9eb"/>
  <path d="M135.056,74.661" fill="#b9d9eb"/>
  <path d="M159.153,84.273" fill="#b9d9eb"/>
  <g id="direct23">
    <g id="Airbnb_Inc">
      <path id="p_1177.8892547487824" d="M148.245,371.615c-65.437,0-118.485-53.048-118.485-118.485s53.047-118.485,118.485-118.485,118.485,53.047,118.485,118.485-53.047,118.485-118.485,118.485Z" fill="#a53860"/>
    </g>
    <text transform="translate(105.979 239.726)" display="none" fill="#fff" font-family="Roboto-Regular, Roboto" font-size="17.82" isolation="isolate"><tspan x="0" y="0">Airbnb, Inc.</tspan></text>
    <text transform="translate(78.203 272.554)" display="none" fill="#fff" font-family="Roboto-Bold, Roboto" font-size="28.35" font-weight="700" isolation="isolate"><tspan x="0" y="0">$4,869,171</tspan></text>
    <path d="M160.508,95.725" fill="#a53860"/>
    <path d="M157.441,123.335" fill="#b9d9eb"/>
    <g>
      <path d="M173.389,85.116c-6.471,16.39-15.866,40.72-26.397,69.892-.356.985-.707,1.961-1.055,2.927" fill="none" stroke="#000" stroke-miterlimit="10"/>
      <polygon points="143.557 164.581 143.09 153.843 146.12 157.438 150.742 156.588 143.557 164.581"/>
    </g>
  </g>
  <g>
    <g>
      <path d="M470.147,40.773v15.806" fill="#fff"/>
      <g>
        <path d="M470.147,47.834v8.745" fill="none" stroke="#000" stroke-miterlimit="10"/>
        <polygon points="470.147 40.773 466.081 50.723 470.147 48.362 474.211 50.723 470.147 40.773"/>
      </g>
    </g>
    <text transform="translate(477.171 106.932)" display="none" font-family="Roboto-Regular, Roboto" font-size="7"><tspan x="0" y="0">The down arrows represent direct </tspan><tspan x="0" y="8.4">investment into a company. </tspan></text>
    <text transform="translate(477.171 46.762)" display="none" font-family="Roboto-Regular, Roboto" font-size="7"><tspan x="0" y="0">The up arrows represent Columbia </tspan><tspan x="0" y="8.4">as the recipient of contributions, </tspan><tspan x="0" y="16.8">gifts, and grants, which is why </tspan><tspan x="0" y="25.2">Columbia is exposed to or benefits </tspan><tspan x="0" y="33.6">from the money of these </tspan><tspan x="0" y="42">companies, instead of directly </tspan><tspan x="0" y="50.4">invested in them. </tspan></text>
    <g>
      <path d="M470.147,117v-15.806" fill="#fff"/>
      <g>
        <path d="M470.147,109.939v-8.745" fill="none" stroke="#000" stroke-miterlimit="10"/>
        <polygon points="470.147 117 474.212 107.051 470.147 109.411 466.082 107.051 470.147 117"/>
      </g>
    </g>
  </g>
  <g>
    <g id="_iShares_Intermediate_Term_Corporate_Bond_ETF">
      <path id="p_1232.8826589449548" d="M512.192,256.468c-15.43,0-27.938-12.508-27.938-27.938s12.508-27.938,27.938-27.938,27.938,12.508,27.938,27.938-12.508,27.938-27.938,27.938Z" fill="#94d2bd"/>
    </g>
    <g id="iShares_Core_MSCI_Emerging_Markets_ETF43">
      <path id="p_1224.3430755101604" d="M397.008,252.9c-5.176,0-9.373-4.196-9.373-9.373s4.196-9.373,9.373-9.373,9.373,4.196,9.373,9.373-4.196,9.373-9.373,9.373Z" fill="#d9ed92"/>
    </g>
    <text transform="translate(479.174 218.119)" display="none" font-family="Roboto-Regular, Roboto" font-size="7.5" isolation="isolate"><tspan x="0" y="0">iShares Intermediate </tspan><tspan x="-8.798" y="9">Term Corporate Bond ETF</tspan></text>
    <text transform="translate(490.839 240.398)" display="none" font-family="Roboto-Bold, Roboto" font-size="10" font-weight="700" isolation="isolate"><tspan x="0" y="0">$277,999</tspan></text>
    <text transform="translate(399.609 222.017)" display="none" font-family="Roboto-Regular, Roboto" font-size="7" isolation="isolate"><tspan x="0" y="0">iShares Core </tspan><tspan x="0" y="8.4">MSCI Emerging </tspan><tspan x="0" y="16.8">Markets 670 SHS</tspan></text>
    <text transform="translate(399.507 248.404)" display="none" font-family="Roboto-Bold, Roboto" font-size="8" font-weight="700" isolation="isolate"><tspan x="0" y="0">$31,288</tspan></text>
    <g id="Microsoft_Corp.">
      <path id="p_804.2231735218555" d="M337.865,244.924c-8.284.002-15-6.712-15.001-14.996-.002-8.284,6.712-15,14.996-15.001h.006c8.284-.002,15,6.712,15.001,14.996.002,8.284-6.712,15-14.996,15.001h-.006Z" fill="#abc4ff"/>
    </g>
    <g id="Alphabet_Inc.">
      <path id="p_731.3220017612871" d="M338.872,207.323c-7.273.001-13.169-5.893-13.171-13.166-.001-7.273,5.893-13.169,13.166-13.171h.005c7.273-.001,13.169,5.893,13.171,13.166.001,7.273-5.893,13.169-13.166,13.171h-.005Z" fill="#ffbe0b"/>
    </g>
    <g id="Amazon.com_x2C__Inc.">
      <path id="p_971.0529753396582" d="M304.56,183.639c-6.46,0-11.696-5.236-11.696-11.696s5.236-11.696,11.696-11.696,11.696,5.236,11.696,11.696-5.236,11.696-11.696,11.696Z" fill="#e0b1cb"/>
    </g>
    <text transform="translate(274.845 230.572)" display="none" font-family="Roboto-Regular, Roboto" font-size="7" isolation="isolate"><tspan x="0" y="0">Microsoft Corporation</tspan></text>
    <text transform="translate(313.841 241.106)" display="none" font-family="Roboto-Bold, Roboto" font-size="8" font-weight="700" isolation="isolate"><tspan x="0" y="0">$69,068</tspan></text>
    <text transform="translate(304.046 191.838)" display="none" font-family="Roboto-Regular, Roboto" font-size="7" isolation="isolate"><tspan x="0" y="0">Alphabet Inc.</tspan></text>
    <text transform="translate(314.533 202.034)" display="none" font-family="Roboto-Bold, Roboto" font-size="8" font-weight="700" isolation="isolate"><tspan x="0" y="0">$53,238</tspan></text>
    <text transform="translate(252.665 167.258)" display="none" font-family="Roboto-Regular, Roboto" font-size="7" isolation="isolate"><tspan x="0" y="0">Amazon.com, Inc.</tspan></text>
    <text transform="translate(278.82 177.279)" display="none" font-family="Roboto-Bold, Roboto" font-size="8" font-weight="700" isolation="isolate"><tspan x="0" y="0">$42,000</tspan></text>
    <g>
      <path d="M417.765,139.598c-4.623-12.73-11.47-31.572-19.627-53.979-.087-.239-.173-.477-.26-.714" fill="none" stroke="#000" stroke-miterlimit="10"/>
      <polygon points="395.462 78.271 402.686 86.229 398.058 85.401 395.047 89.01 395.462 78.271"/>
    </g>
    <g>
      <path d="M438.516,171.852c37.48,7.179,77.455,17.695,74,30.204" fill="none" stroke="#000" stroke-miterlimit="10"/>
      <polygon points="508.153 207.604 510.517 197.119 512.498 201.383 517.182 201.775 508.153 207.604"/>
    </g>
    <g>
      <path d="M409.12,181.891c-9.502,12.804-19.658,31.757-18.031,54.301.009.131.019.262.029.392" fill="none" stroke="#000" stroke-miterlimit="10"/>
      <polygon points="392.038 243.586 386.784 234.209 391.108 236.054 394.853 233.213 392.038 243.586"/>
    </g>
    <g id="Microsoft_Corp.1" data-name="Microsoft_Corp.">
      <path id="p_804.22317352185551" data-name="p_804.2231735218555" d="M391.527,335.469c-8.284.002-15-6.712-15.001-14.996-.002-8.284,6.712-15,14.996-15.001h.006c8.284-.002,15,6.712,15.001,14.996.002,8.284-6.712,15-14.996,15.001h-.006Z" fill="#ffa5ab"/>
    </g>
    <g id="Microsoft_Corp.2" data-name="Microsoft_Corp.">
      <path id="p_804.22317352185552" data-name="p_804.2231735218555" d="M486.618,335.989c-8.284.002-15-6.712-15.001-14.996-.002-8.284,6.712-15,14.996-15.001h.006c8.284-.002,15,6.712,15.001,14.996.002,8.284-6.712,15-14.996,15.001h-.006Z" fill="#2a9d8f"/>
    </g>
    <text transform="translate(375.555 333.724) scale(.987 1)" display="none" font-family="Roboto-Regular, Roboto" font-size="6" isolation="isolate"><tspan x="0" y="0">HD Hyundai </tspan><tspan x="-6.43" y="7.2">Heavy Industries</tspan></text>
    <text transform="translate(388.802 324.3) scale(.987 1)" display="none" font-family="Roboto-Bold, Roboto" font-size="10" font-weight="700" isolation="isolate"><tspan x="0" y="0">$</tspan></text>
    <text transform="translate(468.183 333.617) scale(.987 1)" display="none" font-family="Roboto-Regular, Roboto" font-size="6" isolation="isolate"><tspan x="0" y="0">Caterpillar Inc.</tspan></text>
    <text transform="translate(483.976 323.938) scale(.987 1)" display="none" font-family="Roboto-Bold, Roboto" font-size="10" font-weight="700" isolation="isolate"><tspan x="0" y="0">$</tspan></text>
    <path d="M353.753,166.684c12.764.26,25.527.521,38.291.781" fill="none"/>
    <g>
      <path d="M396.822,166.737c-11.358.252-27.819.792-45.776,2.046-12.892.9-23.046,1.922-30.672,2.828" fill="none" stroke="#000" stroke-miterlimit="10"/>
      <polygon points="313.372 172.497 322.777 167.295 320.908 171.609 323.729 175.369 313.372 172.497"/>
    </g>
    <g>
      <path d="M396.822,166.737c-6.859.946-16.799,2.978-27.643,7.689-7.042,3.06-12.732,6.497-17.162,9.644" fill="none" stroke="#000" stroke-miterlimit="10"/>
      <polygon points="346.429 188.388 351.922 179.151 352.486 183.818 356.819 185.641 346.429 188.388"/>
    </g>
    <g>
      <path d="M396.822,166.737c-6.751,2.426-16.535,7.635-27.207,19.713-8.307,9.402-14.701,20.191-19.342,29.43" fill="none" stroke="#000" stroke-miterlimit="10"/>
      <polygon points="347.223 222.246 347.918 211.521 350.542 215.422 355.229 215.077 347.223 222.246"/>
    </g>
    <g>
      <path d="M491.416,247.045c-13.065,2.871-32,9.034-52.656,23.327-17.043,11.794-29.926,25.434-39.015,36.776" fill="none" stroke="#000" stroke-miterlimit="10"/>
      <polygon points="395.425 312.731 398.437 302.413 400.148 306.792 404.799 307.474 395.425 312.731"/>
    </g>
    <g>
      <path d="M491.18,247.16c-1.085,2.87-2.656,9.032-4.371,23.323-1.354,11.289-2.393,24.269-3.141,35.306" fill="none" stroke="#000" stroke-miterlimit="10"/>
      <polygon points="483.211 312.832 479.861 302.62 483.749 305.263 487.971 303.196 483.211 312.832"/>
    </g>
    <g>
      <path d="M394.237,252.248c-5.365,12.647-11.099,31.368-10.18,53.635.004.087.007.174.011.261" fill="none" stroke="#000" stroke-miterlimit="10"/>
      <polygon points="384.593 313.186 379.857 303.538 384.074 305.616 387.968 302.983 384.593 313.186"/>
    </g>
    <rect x="378.556" y="97.232" width="55.198" height="14.706" rx="7.341" ry="7.341" fill="#d0f4de"/>
    <text transform="translate(380.917 108.539) scale(.987 1)" display="none" font-family="Roboto-Bold, Roboto" font-size="12" font-weight="700" isolation="isolate"><tspan x="0" y="0">$154,709</tspan></text>
    <g id="Columbia_University_Trust_U_x2F_W_E_Reussner__x28_2022_x29_">
      <path id="p_989.0262009642302" d="M418.668,200.22c-19.357,0-34.997-16.116-37.968-32.113-.573-3.086-.55-5.495-.527-6.381.485-18.67,18.559-38.506,38.483-38.506h.013c21.257-.003,38.492,17.231,38.495,38.494.004,21.263-17.226,38.503-38.483,38.506h-.013Z" fill="#d0f4de"/>
    </g>
    <text transform="translate(385.512 153.207)" display="none" font-family="Roboto-Regular, Roboto" font-size="7.5" isolation="isolate"><tspan x="0" y="0">Columbia University </tspan><tspan x="-3.356" y="9">Trust U/W E Reussner </tspan><tspan x="22.144" y="18">(2022)</tspan></text>
    <text transform="translate(414.074 190.75)" display="none" font-family="Roboto-Bold, Roboto" font-size="16" font-weight="700" isolation="isolate"><tspan x="0" y="0">$</tspan></text>
  </g>
<style>
#g-acsri-Artboard_4-group2023-img rect, #g-acsri-Artboard_4-group2023-img circle, #g-acsri-Artboard_4-group2023-img path, #g-acsri-Artboard_4-group2023-img line, #g-acsri-Artboard_4-group2023-img polyline, #g-acsri-Artboard_4-group2023-img polygon { vector-effect: non-scaling-stroke; }
</style>
</svg>
