<?xml version="1.0" encoding="UTF-8"?>
<svg id="g-acsri-Artboard_5-group2023-img" xmlns="http://www.w3.org/2000/svg" baseProfile="tiny" version="1.2" viewBox="0 0 300 700">
  <!-- Generator: Adobe Illustrator 29.6.1, SVG Export Plug-In . SVG Version: 2.1.1 Build 9)  -->
  <g id="Microsoft_Corp.">
    <path id="p_804.2231735218555" d="M165.904,644.385c-7.041.001-12.75-5.705-12.751-12.746-.001-7.041,5.705-12.75,12.746-12.751h.005c7.041-.001,12.75,5.705,12.751,12.746.001,7.041-5.705,12.75-12.746,12.751h-.005Z" fill="#ffa5ab"/>
  </g>
  <g>
    <path d="M175.584,570.191c-8.356,11.394-17.284,28.225-15.986,48.246" fill="none" stroke="#000" stroke-miterlimit="10"/>
    <polygon points="160.465 625.445 155.305 616.017 159.61 617.905 163.383 615.101 160.465 625.445"/>
  </g>
  <path d="M16.605,180.511" fill="#b9d9eb"/>
  <path d="M37.087,188.681" fill="#b9d9eb"/>
  <g id="Airbnb_Inc">
    <path id="p_1177.8892547487824" d="M102.084,407.37c-55.622,0-100.712-45.09-100.712-100.712s45.09-100.712,100.712-100.712,100.712,45.09,100.712,100.712-45.09,100.712-100.712,100.712Z" fill="#a53860"/>
  </g>
  <path d="M112.507,172.863" fill="#a53860"/>
  <path d="M109.9,196.332" fill="#b9d9eb"/>
  <g>
    <path d="M105.348,185.209c-3.436,8.302-8.321,20.507-13.634,35.205" fill="none" stroke="#000" stroke-miterlimit="10"/>
    <polygon points="89.341 227.067 88.9 216.329 91.921 219.931 96.546 219.093 89.341 227.067"/>
  </g>
  <g>
    <path d="M21.846,59.202v13.435" fill="#fff"/>
    <g>
      <path d="M21.846,62.732v9.905" fill="none" stroke="#000" stroke-miterlimit="10"/>
      <polygon points="21.846 59.202 19.813 64.176 21.846 62.996 23.878 64.176 21.846 59.202"/>
    </g>
  </g>
  <g>
    <path d="M21.322,122.416v-13.435" fill="#fff"/>
    <g>
      <path d="M21.322,118.886v-9.905" fill="none" stroke="#000" stroke-miterlimit="10"/>
      <polygon points="21.322 122.416 23.355 117.442 21.322 118.622 19.29 117.442 21.322 122.416"/>
    </g>
  </g>
  <g id="_iShares_Intermediate_Term_Corporate_Bond_ETF">
    <path id="p_1232.8826589449548" d="M262.334,462.417c-13.115,0-23.748-10.632-23.748-23.748s10.632-23.748,23.748-23.748,23.748,10.632,23.748,23.748-10.632,23.748-23.748,23.748Z" fill="#94d2bd"/>
  </g>
  <g id="iShares_Core_MSCI_Emerging_Markets_ETF43">
    <path id="p_1224.3430755101604" d="M170.563,574.202c-4.4,0-7.967-3.567-7.967-7.967s3.567-7.967,7.967-7.967,7.967,3.567,7.967,7.967-3.567,7.967-7.967,7.967Z" fill="#d9ed92"/>
  </g>
  <g id="Microsoft_Corp.1" data-name="Microsoft_Corp.">
    <path id="p_804.22317352185551" data-name="p_804.2231735218555" d="M104.644,556.998c-7.041.001-12.75-5.705-12.751-12.746-.001-7.041,5.705-12.75,12.746-12.751h.005c7.041-.001,12.75,5.705,12.751,12.746.001,7.041-5.705,12.75-12.746,12.751h-.005Z" fill="#abc4ff"/>
  </g>
  <g id="Alphabet_Inc.">
    <path id="p_731.3220017612871" d="M135.262,494.076c-6.182.001-11.194-5.009-11.195-11.191-.001-6.182,5.009-11.194,11.191-11.195h.004c6.182-.001,11.194,5.009,11.195,11.191.001,6.182-5.009,11.194-11.191,11.195h-.004Z" fill="#ffbe0b"/>
  </g>
  <g id="Amazon.com_x2C__Inc.">
    <path id="p_971.0529753396582" d="M75.619,466.495c-5.491,0-9.942-4.451-9.942-9.942s4.451-9.942,9.942-9.942,9.942,4.451,9.942,9.942-4.451,9.942-9.942,9.942Z" fill="#e0b1cb"/>
  </g>
  <g>
    <path d="M272.662,356.006c3.651,14.396,7.554,35.707,6.928,61.054-.01.422-.022.842-.035,1.26" fill="none" stroke="#000" stroke-miterlimit="10"/>
    <polygon points="279.226 425.372 275.6 415.254 279.558 417.791 283.722 415.611 279.226 425.372"/>
  </g>
  <g>
    <path d="M242.353,451.495c-36.967,23.013-76.477,57.08-70.148,97.599.349,2.235.829,4.435,1.428,6.6" fill="none" stroke="#000" stroke-miterlimit="10"/>
    <polygon points="175.897 562.383 168.932 554.197 173.531 555.172 176.657 551.662 175.897 562.383"/>
  </g>
  <g id="Microsoft_Corp.2" data-name="Microsoft_Corp.">
    <path id="p_804.22317352185552" data-name="p_804.2231735218555" d="M246.732,644.828c-7.041.001-12.75-5.705-12.751-12.746-.001-7.041,5.705-12.75,12.746-12.751h.005c7.041-.001,12.75,5.705,12.751,12.746.001,7.041-5.705,12.75-12.746,12.751h-.005Z" fill="#2a9d8f"/>
  </g>
  <path d="M159.013,445.312c23.765.433,47.53.866,71.295,1.3" fill="none"/>
  <g>
    <path d="M239.205,445.401c-21.147.419-51.798,1.318-85.232,3.402-27.577,1.719-48.424,3.708-63.135,5.361" fill="none" stroke="#000" stroke-miterlimit="10"/>
    <polygon points="83.826 454.981 93.295 449.896 91.372 454.186 94.146 457.981 83.826 454.981"/>
  </g>
  <g>
    <path d="M239.205,445.401c-13.551,1.415-33.192,4.454-54.616,11.5-16.729,5.502-29.593,11.819-38.915,17.22" fill="none" stroke="#000" stroke-miterlimit="10"/>
    <polygon points="139.639 477.784 146.095 469.191 146.154 473.892 150.265 476.17 139.639 477.784"/>
  </g>
  <g>
    <path d="M239.205,445.401c-17.543,4.287-42.971,13.491-70.707,34.835-24.034,18.495-41.907,40.031-54.189,57.44" fill="none" stroke="#000" stroke-miterlimit="10"/>
    <polygon points="110.305 543.489 112.627 532.995 114.625 537.25 119.311 537.623 110.305 543.489"/>
  </g>
  <g>
    <path d="M262.335,462.417c-12.674,7.108-31.042,22.369-51.079,57.76-17.943,31.694-31.133,68.771-40.023,98.116" fill="none" stroke="#000" stroke-miterlimit="10"/>
    <polygon points="169.217 625.058 168.296 614.349 171.475 617.813 176.058 616.768 169.217 625.058"/>
  </g>
  <g>
    <path d="M262.335,462.417c-2.518,7.111-6.167,22.381-10.147,57.791-3.553,31.61-6.168,68.572-7.934,97.888" fill="none" stroke="#000" stroke-miterlimit="10"/>
    <polygon points="243.836 625.144 240.44 614.947 244.34 617.572 248.552 615.486 243.836 625.144"/>
  </g>
  <path d="M267.152,189.647H42.632c-1.291.008-3.241-.11-5.545-.776-.084-.024-.342-.1-.648-.2,0,0-3.015-.98-5.358-2.87-4.309-3.477-4.721-8.019-4.784-9.285v-17.07c0-7.252,7.313-13.132,16.334-13.132h224.52c9.021,0,16.334,5.879,16.334,13.132v17.07c0,7.252-7.313,13.132-16.334,13.132Z" fill="#b9d9eb"/>
  <g>
    <path d="M266.422,313.127c-9.655-26.549-23.949-65.849-40.963-112.59-1.074-2.951-2.13-5.85-3.166-8.696" fill="none" stroke="#000" stroke-miterlimit="10"/>
    <polygon points="219.88 185.209 227.103 193.168 222.476 192.34 219.464 195.949 219.88 185.209"/>
  </g>
  <rect x="222.78" y="273.699" width="60.993" height="16.25" rx="6.25" ry="6.25" fill="#d0f4de"/>
  <g id="Columbia_University_Trust_U_x2F_W_E_Reussner__x28_2022_x29_">
    <path id="p_989.0262009642302" d="M263.16,378.577c-16.453,0-29.748-13.698-32.273-27.296-.487-2.623-.468-4.671-.448-5.424.413-15.869,15.775-32.73,32.71-32.73h.011c18.068-.003,32.718,14.646,32.721,32.72.003,18.074-14.642,32.727-32.71,32.73h-.011Z" fill="#d0f4de"/>
  </g>
<style>
#g-acsri-Artboard_5-group2023-img rect, #g-acsri-Artboard_5-group2023-img circle, #g-acsri-Artboard_5-group2023-img path, #g-acsri-Artboard_5-group2023-img line, #g-acsri-Artboard_5-group2023-img polyline, #g-acsri-Artboard_5-group2023-img polygon { vector-effect: non-scaling-stroke; }
</style>
</svg>
