<?xml version="1.0" encoding="UTF-8"?>
<svg id="g-acsri-Artboard_4-group2007-img" xmlns="http://www.w3.org/2000/svg" baseProfile="tiny" version="1.2" viewBox="0 0 600 439.803">
  <!-- Generator: Adobe Illustrator 29.6.1, SVG Export Plug-In . SVG Version: 2.1.1 Build 9)  -->
  <g id="General_Dynamics">
    <path id="p_1308.8027309000297" d="M357.105,224.614c-35.199.004-63.736-28.528-63.739-63.726-.004-35.199,28.528-63.736,63.726-63.739h.013c35.199-.004,63.736,28.528,63.739,63.726.004,35.199-28.528,63.736-63.726,63.739h-.013Z" fill="#577590"/>
  </g>
  <path id="p_1341.631418815377" d="M293.533,322.754c-31.442.005-56.935-25.48-56.939-56.923-.005-31.442,25.48-56.935,56.923-56.939h.017c31.442-.005,56.935,25.48,56.939,56.923.005,31.442-25.48,56.935-56.923,56.939" fill="#90be6d"/>
  <g id="Lockheed_Martin">
    <path id="p_1185.8237690595624" d="M224.923,227.299c-36.681,0-66.417-29.736-66.417-66.417s29.736-66.417,66.417-66.417,66.417,29.736,66.417,66.417-29.736,66.417-66.417,66.417Z" fill="#f4a261"/>
  </g>
<style>
#g-acsri-Artboard_4-group2007-img rect, #g-acsri-Artboard_4-group2007-img circle, #g-acsri-Artboard_4-group2007-img path, #g-acsri-Artboard_4-group2007-img line, #g-acsri-Artboard_4-group2007-img polyline, #g-acsri-Artboard_4-group2007-img polygon { vector-effect: non-scaling-stroke; }
</style>
</svg>
