<?xml version="1.0" encoding="UTF-8"?>
<svg id="g-acsri-Artboard_5-group2002-img" xmlns="http://www.w3.org/2000/svg" baseProfile="tiny" version="1.2" viewBox="0 0 300 700">
  <!-- Generator: Adobe Illustrator 29.6.1, SVG Export Plug-In . SVG Version: 2.1.1 Build 9)  -->
  <g id="General_Electric">
    <path id="p_789.9694963421346" d="M115.109,523.236c-48.931.009-88.605-39.65-88.615-88.581-.009-48.931,39.65-88.605,88.581-88.615h.034c48.931-.009,88.605,39.65,88.615,88.581.009,48.931-39.65,88.605-88.581,88.615h-.034Z" fill="#e76f51"/>
  </g>
  <g id="Caterpillar">
    <path id="p_972.3746552130161" d="M75.096,279.59c-28.438.003-51.493-23.049-51.495-51.486-.003-28.438,23.049-51.493,51.486-51.495h.009c28.438-.003,51.493,23.049,51.495,51.486.003,28.438-23.049,51.493-51.486,51.495h-.009Z" fill="#2a9d8f"/>
  </g>
  <g id="Boeing">
    <path id="p_946.4425232637988" d="M215.479,327.209c-38.197.003-69.165-30.96-69.168-69.157-.003-38.197,30.96-69.165,69.157-69.168h.011c38.197-.003,69.165,30.96,69.168,69.157.003,38.197-30.96,69.165-69.157,69.168h-.011Z" fill="#e9c46a"/>
  </g>
  <g id="Lockheed_Martin_Corp">
    <path id="p_742.2673600837052" d="M136.643,159.128c-19.006,0-34.414-15.407-34.414-34.414s15.407-34.414,34.414-34.414,34.414,15.407,34.414,34.414-15.407,34.414-34.414,34.414Z" fill="#f4a261"/>
  </g>
<style>
#g-acsri-Artboard_5-group2002-img rect, #g-acsri-Artboard_5-group2002-img circle, #g-acsri-Artboard_5-group2002-img path, #g-acsri-Artboard_5-group2002-img line, #g-acsri-Artboard_5-group2002-img polyline, #g-acsri-Artboard_5-group2002-img polygon { vector-effect: non-scaling-stroke; }
</style>
</svg>
